<svg width="191" height="206" viewBox="0 0 191 206" fill="none" xmlns="http://www.w3.org/2000/svg">
<g clip-path="url(#clip0_489_2878)">
<path d="M89.0692 147.239L88.9192 146.859C88.8092 146.619 88.6992 146.379 88.5792 146.139C88.4592 145.899 88.4692 145.929 88.4192 145.819C88.2376 145.475 88.0373 145.141 87.8192 144.819L82.8192 137.329C83.0392 137.649 83.2292 137.979 83.4192 138.329L83.5792 138.649C83.6992 138.879 83.8092 139.119 83.9192 139.369L84.0692 139.749C84.1692 139.989 84.2492 140.229 84.3292 140.469L84.4492 140.849C84.5392 141.169 84.6292 141.499 84.6992 141.849V141.989C84.7795 142.369 84.8396 142.753 84.8792 143.139C84.8792 143.249 84.8792 143.359 84.8792 143.469C84.8792 143.759 84.9292 144.059 84.9392 144.349C84.9392 144.479 84.9392 144.609 84.9392 144.739C84.9392 144.869 84.9392 145.229 84.9392 145.489C84.9392 145.749 84.9392 145.929 84.9392 146.149C84.9392 146.369 84.9392 146.619 84.8892 146.859C84.8392 147.099 84.8892 147.319 84.8192 147.559C84.7492 147.799 84.7492 148.029 84.7092 148.269C84.6692 148.509 84.6392 148.749 84.5892 148.989C84.5392 149.229 84.4892 149.479 84.4392 149.719C84.3892 149.959 84.3292 150.199 84.2692 150.449C84.2092 150.699 84.1692 150.839 84.1092 151.029C83.9892 151.479 83.8492 151.939 83.6992 152.399L83.5292 152.929C83.3092 153.549 83.0792 154.169 82.8292 154.789C82.8292 154.849 82.7792 154.909 82.7492 154.959C82.5092 155.539 82.2492 156.119 81.9692 156.699C81.8792 156.889 81.7792 157.079 81.6892 157.279C81.4392 157.759 81.1892 158.279 80.9192 158.739C80.8292 158.919 80.7392 159.089 80.6392 159.259C80.2792 159.899 79.8992 160.549 79.4992 161.199L79.2892 161.539C78.9392 162.079 78.5792 162.629 78.2092 163.179L77.7892 163.779C77.4392 164.289 77.0592 164.779 76.6792 165.309L76.3392 165.779C75.8392 166.439 75.3392 167.089 74.7892 167.779L74.4192 168.219C73.9892 168.739 73.5392 169.219 73.0892 169.779L72.5492 170.369C72.0692 170.899 71.5492 171.429 71.0692 171.959C70.9492 172.089 70.8392 172.219 70.7192 172.339C70.0892 172.989 69.4492 173.629 68.7892 174.269L68.2792 174.749C67.7592 175.239 67.2792 175.749 66.7092 176.209L66.0792 176.779C65.4492 177.339 64.8192 177.889 64.1692 178.429L63.8992 178.669C63.1592 179.279 62.3992 179.889 61.6292 180.489L60.9792 180.989C60.3926 181.449 59.7926 181.899 59.1792 182.339L58.4692 182.859C57.6592 183.449 56.8292 184.029 55.9892 184.599C33.7392 199.599 9.64922 202.739 2.19922 191.669L7.19922 199.149C14.6492 210.229 38.7392 207.059 60.9892 192.079C61.8292 191.509 62.6592 190.929 63.4692 190.339L64.1792 189.829L65.9892 188.469L66.6292 187.979C67.3992 187.369 68.1592 186.759 68.8992 186.149L69.1592 185.929C69.8092 185.379 70.4492 184.819 71.0792 184.269L71.6992 183.699L73.2892 182.229L73.7892 181.749C74.4492 181.109 75.0892 180.469 75.7192 179.819L76.0692 179.459C76.5792 178.919 77.0692 178.389 77.5592 177.849L78.0792 177.259C78.5392 176.739 78.9892 176.259 79.4292 175.689L79.7792 175.269C80.3192 174.609 80.8392 173.959 81.3392 173.269L81.6692 172.819C82.0592 172.299 82.4392 171.819 82.7992 171.259L83.1992 170.679C83.5792 170.119 83.9492 169.569 84.2992 169.019C84.36 168.909 84.4268 168.802 84.4992 168.699C84.8992 168.049 85.2792 167.399 85.6492 166.749L85.9192 166.249C86.1892 165.749 86.4492 165.249 86.6892 164.769L86.9692 164.199C87.2492 163.609 87.5092 163.029 87.7592 162.449L87.8192 162.289C88.0792 161.659 88.3092 161.039 88.5292 160.419C88.5892 160.249 88.6392 160.069 88.6992 159.889C88.8492 159.429 88.9892 158.979 89.1092 158.529C89.1092 158.409 89.1892 158.299 89.2092 158.189C89.2292 158.079 89.2092 158.019 89.2692 157.939C89.3292 157.699 89.3892 157.459 89.4392 157.219C89.4892 156.979 89.5492 156.729 89.5892 156.479C89.6292 156.229 89.6792 155.999 89.7092 155.759C89.7392 155.519 89.7892 155.289 89.8192 155.049C89.8492 154.809 89.8692 154.579 89.8892 154.349C89.9092 154.119 89.8892 153.879 89.8892 153.649C89.8892 153.419 89.8892 153.199 89.8892 152.969C89.8892 152.739 89.8892 152.669 89.8892 152.519C89.8892 152.369 89.8892 152.329 89.8892 152.229C89.8892 152.129 89.8892 151.979 89.8892 151.849C89.8892 151.549 89.8692 151.249 89.8292 150.949C89.8292 150.849 89.8292 150.739 89.8292 150.639C89.7792 150.249 89.7192 149.859 89.6392 149.479V149.359C89.5912 149.092 89.5278 148.829 89.4492 148.569L89.3892 148.369L89.2692 147.999C89.2492 147.719 89.1692 147.479 89.0692 147.239Z" fill="url(#paint0_linear_489_2878)"/>
<path d="M28.9896 144.43C51.2396 129.43 75.3196 126.28 82.7796 137.36C90.2396 148.44 78.2497 169.56 56.0097 184.55C33.7697 199.54 9.66965 202.69 2.21965 191.62C-5.23035 180.55 6.73965 159.43 28.9896 144.43Z" fill="url(#paint1_linear_489_2878)"/>
<path d="M30.65 147.15C50.81 133.57 72.31 130.21 78.65 139.65C84.99 149.09 73.81 167.74 53.65 181.32C33.49 194.9 11.99 198.25 5.64996 188.82C-0.690036 179.39 10.49 160.73 30.65 147.15Z" fill="url(#paint2_linear_489_2878)"/>
<path d="M31.7297 148.87C50.9397 135.94 71.1397 132.34 76.8697 140.87C82.5997 149.4 71.6697 166.75 52.4697 179.68C33.2697 192.61 13.0597 196.2 7.32971 187.68C1.59971 179.16 12.4897 161.8 31.7297 148.87Z" fill="url(#paint3_linear_489_2878)"/>
<path style="mix-blend-mode:screen" opacity="0.5" d="M44.8993 135.6L4.81934 194.43C4.81934 194.43 14.3693 203.22 36.8893 194.43L73.7993 131.53C73.7993 131.53 62.6193 128.06 44.8993 135.6Z" fill="url(#paint4_linear_489_2878)"/>
<path d="M113.599 3.42957L113.449 3.61957C113.359 3.73957 113.269 3.86957 113.189 3.99957L113.079 4.17957C112.97 4.37171 112.876 4.57237 112.799 4.77957L110.919 9.61957C111 9.41413 111.094 9.21376 111.199 9.01956C111.239 8.96184 111.276 8.90174 111.309 8.83957C111.389 8.70957 111.479 8.57956 111.569 8.45956C111.659 8.33956 111.669 8.32956 111.729 8.26956C111.789 8.20956 111.929 8.03957 112.029 7.92957C112.129 7.81957 112.139 7.80955 112.199 7.75955C112.346 7.61564 112.503 7.482 112.669 7.35956L112.739 7.29956C112.929 7.15956 113.139 7.01956 113.349 6.88956C113.409 6.84707 113.472 6.81025 113.539 6.77957L114.049 6.49957L114.279 6.38956L114.749 6.18958L115.169 6.01956L115.639 5.85956L116.109 5.70956L116.609 5.56958L117.119 5.44955L117.659 5.32956L118.199 5.22955L118.649 5.15958L119.729 5.01956L120.149 4.96957C120.649 4.91957 121.149 4.87956 121.689 4.85956H121.839C122.329 4.85956 122.839 4.85956 123.349 4.85956H123.859H125.189H125.659L127.489 4.97955H127.819L129.429 5.12958L130.029 5.19955L131.589 5.39957L132.069 5.46957L134.139 5.79956L134.609 5.88956C135.169 5.98956 135.739 6.08956 136.309 6.20956L136.969 6.33957L138.769 6.73956L139.199 6.82956L141.489 7.42957L142.069 7.58957L143.839 8.06958L144.539 8.26956C145.229 8.45956 145.919 8.66958 146.609 8.87958L146.909 8.96957C147.689 9.21957 148.489 9.46956 149.279 9.73956L149.949 9.96957L151.779 10.5996L152.479 10.8596C153.289 11.1496 154.109 11.4596 154.929 11.7696C176.429 20.1196 191.609 32.6896 188.829 39.8496L190.709 35.0096C193.489 27.8496 178.309 15.2796 156.799 6.93958C155.989 6.61958 155.169 6.30956 154.359 6.01956L153.649 5.75955L151.819 5.12958L151.159 4.89957L148.779 4.12958L148.499 4.04956C147.799 3.82956 147.109 3.61957 146.419 3.42957L145.729 3.22955L143.939 2.74957L143.369 2.58957L141.109 2.03955L140.699 1.94955L138.879 1.54956L138.229 1.41956L136.509 1.08957L136.059 1.00955L133.979 0.679565L133.519 0.609558L131.939 0.409576L131.349 0.339569L129.719 0.179565H129.409L127.569 0.0595703H127.109H125.769H125.269C124.749 0.0595703 124.269 0.0595703 123.749 0.0595703H123.609C123.079 0.0595703 122.609 0.129556 122.069 0.169556H121.639L120.569 0.30957H120.309H120.119L119.579 0.409576L119.039 0.529572L118.529 0.659576L118.029 0.789551L117.549 0.939575L117.089 1.09958L116.659 1.26956L116.369 1.38956L116.199 1.46957L115.969 1.57956C115.789 1.66956 115.619 1.76957 115.449 1.86957L115.269 1.96957C115.055 2.09798 114.848 2.23818 114.649 2.38956H114.599C114.459 2.49956 114.329 2.59956 114.209 2.70956C114.176 2.73699 114.146 2.7671 114.119 2.79956L113.959 2.95956C113.799 3.21956 113.699 3.32957 113.599 3.42957Z" fill="url(#paint5_linear_489_2878)"/>
<path d="M144.819 37.7196C123.319 29.3696 108.139 16.7996 110.919 9.63956C113.699 2.47957 133.379 3.42957 154.919 11.7696C176.459 20.1096 191.599 32.6896 188.819 39.8496C186.039 47.0096 166.329 46.0596 144.819 37.7196Z" fill="url(#paint6_linear_489_2878)"/>
<path d="M145.609 36.0499C126.119 28.4899 112.229 17.4199 114.609 11.3099C116.989 5.19986 134.699 6.38984 154.189 13.9498C173.679 21.5098 187.559 32.5899 185.189 38.6899C182.819 44.7899 165.099 43.6099 145.609 36.0499Z" fill="url(#paint7_linear_489_2878)"/>
<path d="M146.079 34.9796C127.519 27.7796 114.199 17.4896 116.329 11.9796C118.459 6.46955 135.239 7.85957 153.799 15.0596C172.359 22.2596 185.679 32.5496 183.539 38.0596C181.399 43.5696 164.639 42.1796 146.079 34.9796Z" fill="url(#paint8_linear_489_2878)"/>
</g>
<defs>
<linearGradient id="paint0_linear_489_2878" x1="13.7773" y1="204.05" x2="94.4035" y2="149.652" gradientUnits="userSpaceOnUse">
<stop stop-color="#C87A16"/>
<stop offset="0.07" stop-color="#F7AE2D"/>
<stop offset="0.22" stop-color="#F7AE2D"/>
<stop offset="0.32" stop-color="#9B600E"/>
<stop offset="0.52" stop-color="#A15900"/>
<stop offset="0.66" stop-color="#FFF9AB"/>
<stop offset="0.76" stop-color="#FFF9AB"/>
<stop offset="0.87" stop-color="#DCB045"/>
<stop offset="1" stop-color="#8F4E0D"/>
</linearGradient>
<linearGradient id="paint1_linear_489_2878" x1="4.47615" y1="190.264" x2="85.1024" y2="135.866" gradientUnits="userSpaceOnUse">
<stop stop-color="#FDE495"/>
<stop offset="0.49" stop-color="#F7EF9B"/>
<stop offset="0.99" stop-color="#FEF2B2"/>
</linearGradient>
<linearGradient id="paint2_linear_489_2878" x1="31.9139" y1="144.25" x2="60.9555" y2="187.294" gradientUnits="userSpaceOnUse">
<stop stop-color="#D09A1B"/>
<stop offset="0.39" stop-color="#F1CA56"/>
<stop offset="0.56" stop-color="#EBC452"/>
<stop offset="1" stop-color="#F9DC62"/>
</linearGradient>
<linearGradient id="paint3_linear_489_2878" x1="34.7254" y1="148.525" x2="56.9742" y2="181.501" gradientUnits="userSpaceOnUse">
<stop stop-color="#FDE98D"/>
<stop offset="1" stop-color="#FDD03F"/>
</linearGradient>
<linearGradient id="paint4_linear_489_2878" x1="7.00528" y1="157.071" x2="69.5331" y2="170.224" gradientUnits="userSpaceOnUse">
<stop stop-color="white"/>
<stop offset="1"/>
</linearGradient>
<linearGradient id="paint5_linear_489_2878" x1="188.262" y1="38.649" x2="110.579" y2="8.57818" gradientUnits="userSpaceOnUse">
<stop stop-color="#C87A16"/>
<stop offset="0.07" stop-color="#F7AE2D"/>
<stop offset="0.22" stop-color="#F7AE2D"/>
<stop offset="0.32" stop-color="#9B600E"/>
<stop offset="0.52" stop-color="#A15900"/>
<stop offset="0.66" stop-color="#FFF9AB"/>
<stop offset="0.76" stop-color="#FFF9AB"/>
<stop offset="0.87" stop-color="#DCB045"/>
<stop offset="1" stop-color="#8F4E0D"/>
</linearGradient>
<linearGradient id="paint6_linear_489_2878" x1="184.824" y1="47.5305" x2="107.141" y2="17.4597" gradientUnits="userSpaceOnUse">
<stop stop-color="#EEC921"/>
<stop offset="0.5" stop-color="#E8CE64"/>
<stop offset="1" stop-color="#EDA800"/>
</linearGradient>
<linearGradient id="paint7_linear_489_2878" x1="141.393" y1="44.727" x2="152.135" y2="16.9758" gradientUnits="userSpaceOnUse">
<stop stop-color="#B27800"/>
<stop offset="0.5" stop-color="#AB6F00"/>
<stop offset="1" stop-color="#94590B"/>
</linearGradient>
<linearGradient id="paint8_linear_489_2878" x1="142.497" y1="42.0105" x2="150.727" y2="20.7507" gradientUnits="userSpaceOnUse">
<stop stop-color="#E0A001"/>
<stop offset="1" stop-color="#CE8800"/>
</linearGradient>
<clipPath id="clip0_489_2878">
<rect width="191" height="205.7" fill="white"/>
</clipPath>
</defs>
</svg>
