<svg width="197" height="264" viewBox="0 0 197 264" fill="none" xmlns="http://www.w3.org/2000/svg">
<path d="M92.0711 74.3469C92.2311 74.1469 92.4011 73.9469 92.5511 73.7369C92.7011 73.5269 92.9611 73.1669 93.1611 72.8669C93.3611 72.5669 93.4511 72.4569 93.5811 72.2469C93.7111 72.0369 93.9711 71.6269 94.1611 71.3069L94.5211 70.7069C94.7211 70.3469 94.9011 69.9869 95.0811 69.6169L95.3611 69.0869C95.6211 68.5369 95.8711 67.9769 96.9311 65.5469L99.6611 58.3269C98.5911 60.7669 99.0211 58.7969 98.8211 59.1069L98.4011 59.7369C98.1911 60.0169 98.0011 60.3169 97.7911 60.5869C97.5811 60.8569 97.4711 61.0069 97.3111 61.2069C97.1511 61.4069 96.8911 61.7469 96.6611 62.0069C96.4311 62.2669 96.3111 62.4069 96.1411 62.6069C95.9711 62.8069 95.6911 63.1169 95.4511 63.3569L94.8811 63.9369L94.1511 64.6369L93.5411 65.1869C93.2911 65.4069 93.0311 65.6369 92.7711 65.8469C92.5111 66.0569 92.3411 66.1969 92.1211 66.3669L91.3111 66.9869C91.0811 67.1569 90.8611 67.3169 90.6211 67.4769L89.7711 68.0569L89.0511 68.5069C88.7611 68.6969 88.4611 68.8669 88.1511 69.0469C87.8411 69.2269 87.6711 69.3369 87.4211 69.4669L86.4211 69.9769C86.1811 70.1069 85.9311 70.2369 85.6711 70.3569L84.6711 70.8269L83.9011 71.1669C83.5611 71.3169 83.2011 71.4569 82.8511 71.5969C82.5011 71.7369 82.3311 71.8069 82.0711 71.8969L80.9511 72.2969L80.1911 72.5569L78.9711 72.9269L78.2411 73.1369C77.7911 73.2669 77.3211 73.3769 76.8511 73.4869L76.2511 73.6369C75.6411 73.7769 75.0211 73.9069 74.3911 74.0169H74.2111C73.5211 74.1469 72.8211 74.2569 72.1011 74.3569H71.7511L69.9811 74.5669L69.3011 74.6269C68.8011 74.6269 68.3011 74.7169 67.8111 74.7369H67.0011L65.6111 74.7869H63.3811H62.4611L61.1211 74.7269L60.1211 74.6569L58.8011 74.5569L57.8011 74.4469C57.3611 74.4069 56.9211 74.3569 56.4811 74.2969L55.4811 74.1569L54.1511 73.9469L53.1511 73.7669L51.8311 73.5069L50.8311 73.2869L49.4911 72.9769L48.4911 72.7169L47.1511 72.3569L46.1511 72.0569L45.2511 71.7769C44.0711 71.4069 42.8811 71.0069 41.6911 70.5669C40.9211 70.2669 40.1511 69.9669 39.3911 69.6469L38.6611 69.3269C38.1511 69.1169 37.6611 68.8969 37.1411 68.6669L36.2911 68.2569C35.8511 68.0469 35.3911 67.8369 34.9511 67.6069L34.0911 67.1669L32.8111 66.4869L31.9611 66.0069L30.7311 65.2969L29.9111 64.7969L28.6911 64.0269L27.9411 63.5369L26.6511 62.6569L26.0411 62.2269C25.4678 61.8136 24.9078 61.3936 24.3611 60.9669L24.2111 60.8569C23.6111 60.3869 23.0211 59.9169 22.4411 59.4269L21.9711 59.0169C21.5611 58.6769 21.1511 58.3169 20.7611 57.9669C20.5511 57.7869 20.3611 57.5969 20.1611 57.4069L19.1611 56.4569L18.5811 55.8969C18.2711 55.5869 17.9611 55.2769 17.6611 54.9569L17.0611 54.3169C16.7611 53.9969 16.4811 53.6769 16.1911 53.3169C15.9011 52.9569 15.8211 52.8769 15.6311 52.6669C15.4411 52.4569 15.0711 51.9969 14.8011 51.6669L14.2911 51.0369C14.0111 50.6669 13.7311 50.3069 13.4611 49.9369L13.0311 49.3669C12.7011 48.9069 12.3811 48.4369 12.0311 47.9669C11.9611 47.8769 11.8911 47.7669 11.8211 47.6669C11.4511 47.0969 11.0911 46.5169 10.7411 45.9469L10.4811 45.4769C10.2311 45.0569 9.99108 44.6269 9.75108 44.1969L9.42113 43.5469C9.22113 43.1769 9.04113 42.8069 8.86113 42.4369C8.68113 42.0669 8.6311 41.9569 8.5211 41.7169C8.4111 41.4769 8.20107 41.0069 8.05107 40.6569L7.75108 39.9069C7.61108 39.5569 7.47111 39.1969 7.34111 38.8469L7.07109 38.0969C6.95109 37.7369 6.83111 37.3769 6.72111 37.0169C6.61111 36.6569 6.57108 36.5269 6.50108 36.2769C6.43108 36.0269 6.29108 35.5269 6.19108 35.1469C6.09108 34.7669 6.0711 34.6969 6.0211 34.4669C5.9211 34.0269 5.83108 33.5769 5.75108 33.1269C5.75108 32.9669 5.68111 32.8069 5.65111 32.6469C5.55111 32.0469 5.4611 31.4369 5.3911 30.8369C5.3911 30.6769 5.39111 30.5169 5.34111 30.3569C5.34111 29.9169 5.25112 29.4669 5.23112 29.0169C5.23112 28.7869 5.23112 28.5569 5.23112 28.3269C5.23112 28.0969 5.23112 27.5769 5.23112 27.2069C5.23112 26.8369 5.23112 26.7069 5.23112 26.4569C5.23112 26.2069 5.23112 25.7469 5.23112 25.3969L5.29112 24.6269C5.29112 24.2769 5.36111 23.9269 5.40111 23.5769C5.44111 23.2269 5.47108 23.0969 5.50108 22.8469C5.53108 22.5969 5.62108 22.1269 5.69108 21.7669C5.76108 21.4069 5.78109 21.3069 5.82109 21.0769C5.91109 20.6869 6.01113 20.3069 6.11113 19.9169L6.26109 19.3269C6.43109 18.7569 4.97113 22.1269 5.17113 21.5569L1.57109 30.7569C1.37109 31.3169 1.1911 31.8969 1.0211 32.4769L0.871077 33.0669C0.771077 33.4469 0.671109 33.8269 0.591109 34.2169C0.591109 34.4469 0.501094 34.6769 0.451094 34.9069C0.401094 35.1369 0.321092 35.6269 0.261092 35.9869L0.171126 36.7169C0.171126 36.8869 0.111118 37.0569 0.101118 37.2369C0.0911184 37.4169 0.101118 37.5869 0.101118 37.7769C0.101118 37.9669 0.101111 38.2769 0.0311111 38.5369C-0.0388889 38.7969 0.0311111 39.2469 0.0311111 39.6069C0.0311111 39.9669 0.0311111 40.0969 0.0311111 40.3469C0.0311111 40.5969 0.0311111 41.0969 0.0311111 41.4769C0.0311111 41.8569 0.0311111 41.9369 0.0311111 42.1569C0.0311111 42.6169 0.101106 43.0669 0.151106 43.5169C0.151106 43.6669 0.151106 43.8169 0.151106 43.9669C0.221106 44.5769 0.301116 45.1869 0.411116 45.7869C0.411116 45.9469 0.471092 46.0969 0.511092 46.2569C0.591092 46.7069 0.681121 47.1569 0.791121 47.6069C0.791121 47.8269 0.901094 48.0569 0.951094 48.2769C1.05109 48.6569 1.15109 49.0469 1.26109 49.4269C1.37109 49.8069 1.41112 49.9069 1.48112 50.1469C1.55112 50.3869 1.71111 50.8769 1.84111 51.2469C1.97111 51.6169 2.01112 51.7369 2.10112 51.9869C2.19112 52.2369 2.37109 52.6969 2.51109 53.0569L2.81108 53.7869L3.29112 54.8669C3.40112 55.1069 3.50108 55.3369 3.62108 55.5769C3.74108 55.8169 3.99107 56.3269 4.18107 56.6969L4.5211 57.3469C4.7511 57.7769 4.99108 58.2069 5.25108 58.6269C5.33108 58.7869 5.41108 58.9369 5.50108 59.0869C5.85108 59.6669 6.21111 60.2369 6.59111 60.8069C6.65111 60.9069 6.72107 61.0069 6.80107 61.1169C7.10107 61.5769 7.42107 62.0469 7.80107 62.5069L8.23112 63.0769L9.06108 64.1769L9.57109 64.8069L10.4011 65.8069L10.9711 66.4569L11.8311 67.4569L12.4311 68.0969C12.7311 68.4169 13.0411 68.7269 13.3511 69.0369L13.9711 69.6569L14.9711 70.6069C15.1711 70.7969 15.3711 70.9869 15.5811 71.1669C15.9611 71.5169 16.3511 71.8569 16.7511 72.1669L17.2611 72.6069C17.8411 73.0869 18.4211 73.6069 19.0211 74.0269L19.2211 74.1769C19.7511 74.5869 20.2911 74.9869 20.8511 75.3869C21.0611 75.5469 21.2811 75.6869 21.4911 75.8369L22.7511 76.7069L23.5111 77.2069L24.7211 77.9769L25.5511 78.4669L26.7711 79.1769L27.6311 79.6569L28.8911 80.3269L29.7711 80.7869L31.1011 81.4269L31.9611 81.8369C32.4511 82.0669 32.9611 82.2869 33.4611 82.4969L34.2011 82.8269C34.9611 83.1369 35.7311 83.4469 36.5111 83.7369C37.6911 84.1769 38.8811 84.5769 40.0711 84.9469L40.4911 85.0969L40.9511 85.2269L41.9511 85.5269C42.3911 85.6469 42.8311 85.7769 43.2811 85.8869L44.2811 86.1469L45.6011 86.4569L46.6011 86.6769L47.9011 86.9369L48.9011 87.1169L50.2111 87.3269L51.2111 87.4669L52.5011 87.6169L53.5011 87.7269L54.7811 87.8269L55.7811 87.8969L57.0711 87.9469H58.0711H60.2911H61.6311H62.4911L63.9011 87.8369L64.6611 87.7669C65.2111 87.7169 65.7611 87.6469 66.3111 87.5769L66.7811 87.5169C67.4911 87.4169 68.1911 87.3069 68.8811 87.1769L69.2011 87.1169C69.7811 86.9969 70.3511 86.8869 70.9211 86.7569L71.5911 86.5969L72.9111 86.2569L73.6811 86.0369L74.8511 85.6769C75.1211 85.5969 75.3811 85.4969 75.6411 85.4069L76.7411 85.0269L77.5311 84.7069C77.8811 84.5769 78.2311 84.437 78.5311 84.2869L79.3211 83.9369L80.3211 83.4769L81.0811 83.0869C81.4011 82.9269 81.7211 82.7669 82.0811 82.5869C82.4411 82.4069 82.5711 82.3169 82.8211 82.1669L83.7211 81.6269L84.4311 81.1769C84.7211 80.9869 85.0111 80.7969 85.2911 80.5969L85.9711 80.1069C86.2511 79.9069 86.5111 79.6969 86.7811 79.4869C87.0511 79.2769 87.2211 79.1469 87.4311 78.9669C87.6411 78.7869 87.9511 78.5269 88.2011 78.3069L88.8111 77.7569L89.5411 77.0569C89.7311 76.8669 89.9311 76.6769 90.1211 76.4769C90.3111 76.2769 90.5711 75.9869 90.8011 75.7269C91.0311 75.4669 91.1611 75.3369 91.3211 75.1269C91.4811 74.9169 91.8611 74.6169 92.0711 74.3469Z" fill="url(#paint0_linear_489_2902)"/>
<path d="M5.20093 21.6272C12.1309 2.1972 38.9809 -5.57281 65.2009 4.25719C91.4209 14.0872 107.021 37.8072 100.091 57.2572C93.1609 76.7072 66.3309 84.4572 40.091 74.6172C13.851 64.7772 -1.70906 41.0472 5.20093 21.6272Z" fill="url(#paint1_linear_489_2902)"/>
<path d="M10.7307 23.6968C16.8507 6.52679 40.5707 -0.303191 63.7307 8.35681C86.8907 17.0168 100.651 37.9968 94.5807 55.1668C88.5107 72.3368 64.7507 79.1668 41.5807 70.5068C18.4107 61.8468 4.58068 40.8968 10.7307 23.6968Z" fill="url(#paint2_linear_489_2902)"/>
<path d="M13.4616 24.4069C19.0016 8.48691 41.0417 2.3169 62.6716 10.6069C84.3017 18.8969 97.3516 38.5269 91.8116 54.4569C86.2716 70.3869 64.2416 76.5569 42.6016 68.2569C20.9616 59.9569 7.92163 40.3269 13.4616 24.4069Z" fill="url(#paint3_linear_489_2902)"/>
<path d="M108.361 245.517L108.821 246.147C109.031 246.427 109.251 246.697 109.481 246.967C109.711 247.237 109.791 247.357 109.961 247.547C110.131 247.737 110.451 248.087 110.701 248.367C110.951 248.647 111.021 248.707 111.181 248.877C111.341 249.047 111.771 249.447 112.071 249.717L112.501 250.127C112.961 250.527 113.431 250.927 113.911 251.297L122.191 257.517C122.191 257.517 122.641 257.847 122.361 257.517C122.081 257.187 122.041 257.177 121.881 257.007C121.721 256.837 121.371 256.467 121.131 256.187C120.891 255.907 120.811 255.807 120.651 255.607C120.491 255.407 120.201 255.067 119.991 254.787C119.781 254.507 119.681 254.367 119.541 254.157C119.401 253.947 119.131 253.597 118.941 253.317C118.751 253.037 118.661 252.867 118.521 252.647C118.381 252.427 118.151 252.077 117.981 251.777L117.591 251.067C117.421 250.777 117.271 250.477 117.111 250.167C116.951 249.857 116.871 249.687 116.751 249.427L116.331 248.517C116.221 248.257 116.121 247.997 116.011 247.747C115.901 247.497 115.761 247.107 115.641 246.797C115.521 246.487 115.451 246.267 115.361 245.997C115.271 245.727 115.151 245.347 115.051 244.997C114.951 244.647 114.881 244.457 114.811 244.187C114.741 243.917 114.621 243.507 114.541 243.187L114.331 242.367C114.251 242.017 114.191 241.667 114.111 241.307C114.031 240.947 114.001 240.757 113.951 240.487C113.901 240.217 113.841 239.757 113.791 239.387C113.741 239.017 113.701 238.837 113.671 238.557C113.641 238.277 113.581 237.797 113.551 237.427C113.521 237.057 113.491 236.867 113.471 236.597C113.451 236.327 113.471 235.807 113.401 235.407C113.331 235.007 113.401 234.877 113.401 234.597C113.401 234.317 113.401 233.757 113.401 233.327C113.401 233.077 113.401 232.827 113.401 232.577C113.401 232.097 113.401 231.577 113.401 231.137C113.401 230.937 113.401 230.727 113.401 230.517C113.401 229.897 113.491 229.257 113.551 228.627C113.551 228.567 113.551 228.507 113.551 228.447C113.621 227.747 113.701 227.037 113.801 226.327L113.861 225.977C113.951 225.387 114.041 224.797 114.151 224.207C114.151 223.987 114.241 223.767 114.281 223.547C114.381 223.057 114.481 222.547 114.591 222.087C114.651 221.817 114.721 221.557 114.771 221.297C114.881 220.847 114.991 220.397 115.111 219.947L115.351 219.097C115.471 218.667 115.601 218.237 115.731 217.807C115.861 217.377 115.921 217.217 116.011 216.917C116.101 216.617 116.291 216.077 116.441 215.657C116.591 215.237 116.651 215.057 116.761 214.747C116.871 214.437 117.071 213.927 117.231 213.507L117.601 212.597C117.771 212.187 117.941 211.777 118.121 211.367C118.301 210.957 118.391 210.757 118.531 210.447C118.671 210.137 118.901 209.637 119.101 209.237L119.551 208.307C119.751 207.907 119.961 207.507 120.171 207.107L120.661 206.187C120.881 205.787 121.101 205.387 121.331 204.997C121.561 204.607 121.681 204.387 121.861 204.087C122.041 203.787 122.341 203.287 122.591 202.897C122.841 202.507 122.961 202.297 123.151 202.007C123.341 201.717 123.491 201.487 123.671 201.227C124.351 200.227 125.061 199.157 125.821 198.137C126.311 197.477 126.821 196.817 127.331 196.137L127.841 195.527C128.191 195.097 128.551 194.677 128.901 194.257L129.531 193.547C129.861 193.177 130.191 192.807 130.531 192.447L131.191 191.737C131.531 191.377 131.861 191.037 132.191 190.737L132.881 190.047L133.881 189.047L134.581 188.397C134.931 188.077 135.301 187.757 135.671 187.397L136.341 186.817L137.551 185.817L138.131 185.347C138.681 184.917 139.241 184.497 139.801 184.087L139.951 183.967C140.571 183.517 141.181 183.087 141.811 182.667L142.331 182.327L143.681 181.457L144.381 181.037C144.781 180.797 145.181 180.557 145.591 180.327L146.341 179.907L147.511 179.277L148.291 178.887C148.681 178.687 149.061 178.497 149.451 178.317L150.231 177.957L151.431 177.437L152.181 177.117L153.461 176.627L154.131 176.377C154.671 176.187 155.201 176.007 155.741 175.837L156.091 175.717C156.741 175.517 157.391 175.327 158.041 175.157L158.561 175.037C159.031 174.917 159.561 174.797 159.991 174.697L160.711 174.547C161.121 174.467 161.521 174.387 161.931 174.327L162.711 174.197L163.871 174.047C164.141 174.047 164.401 173.977 164.671 173.957L165.811 173.857L166.601 173.807H167.731H168.501C168.901 173.807 169.291 173.807 169.681 173.807H170.381L171.741 173.917H172.231C172.841 173.977 173.441 174.057 174.041 174.157L174.511 174.257C174.951 174.327 175.401 174.417 175.831 174.517C176.061 174.517 176.271 174.627 176.501 174.677C176.731 174.727 177.231 174.857 177.591 174.967L178.301 175.187L179.301 175.527C179.541 175.607 179.791 175.697 180.021 175.797C180.251 175.897 180.671 176.057 181.021 176.187L181.691 176.487C182.031 176.637 182.351 176.797 182.691 176.967L183.311 177.287C183.671 177.477 184.011 177.677 184.311 177.877L184.831 178.187C185.341 178.507 184.731 177.777 185.221 178.137L175.161 170.517C174.671 170.167 174.161 169.837 173.661 169.517C173.491 169.407 173.311 169.307 173.131 169.207C172.791 169.007 172.451 168.807 172.131 168.617C171.811 168.427 171.711 168.397 171.511 168.297L170.511 167.807L169.841 167.517L169.361 167.307C169.201 167.237 169.021 167.187 168.851 167.117L168.141 166.847L167.141 166.507L166.441 166.297C166.071 166.187 165.701 166.097 165.341 166.007L164.681 165.837C164.231 165.737 163.791 165.657 163.341 165.577L162.891 165.487C162.291 165.387 161.691 165.307 161.071 165.237H160.601C160.141 165.237 159.681 165.157 159.221 165.137H158.541H157.341H156.591H155.441L154.651 165.187L153.511 165.277L152.721 165.367L151.551 165.527L150.781 165.647L149.551 165.877L148.831 166.017L147.391 166.367L146.891 166.487C146.241 166.657 145.591 166.847 144.891 167.047L144.541 167.167C144.001 167.337 143.471 167.507 142.941 167.697L142.261 167.947L140.991 168.447L140.231 168.767C139.831 168.927 139.441 169.097 139.041 169.277L138.251 169.647L137.101 170.207L136.311 170.607L135.151 171.227L134.381 171.657C133.991 171.877 133.591 172.117 133.201 172.357C132.811 172.597 132.721 172.637 132.491 172.787C132.041 173.057 131.611 173.347 131.171 173.627C130.991 173.757 130.801 173.867 130.611 173.997C129.981 174.417 129.371 174.847 128.751 175.297L128.561 175.447C128.011 175.847 127.481 176.257 126.941 176.677L126.331 177.167L125.151 178.167C124.921 178.357 124.691 178.567 124.461 178.767C124.231 178.967 123.741 179.387 123.391 179.707L122.681 180.367L121.681 181.367L120.981 182.057C120.641 182.397 120.321 182.737 119.981 183.057L119.291 183.787C118.961 184.137 118.631 184.507 118.291 184.887C118.081 185.117 117.871 185.357 117.671 185.597C117.311 186.007 116.961 186.427 116.671 186.847L116.151 187.477C115.631 188.117 115.151 188.777 114.631 189.477C113.885 190.497 113.165 191.527 112.471 192.567L112.221 192.927L111.961 193.337L111.391 194.237C111.151 194.627 110.911 195.017 110.681 195.417C110.451 195.817 110.321 196.027 110.141 196.337L109.481 197.517C109.311 197.827 109.141 198.137 108.981 198.457C108.821 198.777 108.571 199.237 108.371 199.637C108.171 200.037 108.061 200.267 107.911 200.577C107.761 200.887 107.541 201.377 107.351 201.767L106.931 202.717L106.421 203.917C106.291 204.227 106.171 204.547 106.041 204.857C105.911 205.167 105.731 205.667 105.591 206.067C105.451 206.467 105.351 206.687 105.251 207.007C105.151 207.327 104.971 207.817 104.841 208.227C104.711 208.637 104.631 208.837 104.541 209.147C104.451 209.457 104.291 209.987 104.181 210.397C104.071 210.807 104.001 210.997 103.921 211.297C103.841 211.597 103.711 212.157 103.601 212.587C103.491 213.017 103.461 213.147 103.401 213.427C103.291 213.887 103.211 214.347 103.121 214.807C103.071 215.057 103.011 215.307 102.961 215.557C102.861 216.107 102.771 216.647 102.701 217.197C102.701 217.347 102.641 217.507 102.621 217.667C102.521 218.377 102.431 219.077 102.361 219.777C102.372 219.883 102.372 219.99 102.361 220.097C102.361 220.687 102.261 221.267 102.231 221.847V222.537C102.231 222.997 102.231 223.457 102.231 223.907C102.231 224.177 102.231 224.437 102.231 224.707C102.231 224.977 102.231 225.517 102.231 225.927C102.231 226.337 102.231 226.487 102.231 226.757C102.231 227.027 102.231 227.537 102.301 227.927C102.371 228.317 102.301 228.497 102.371 228.777L102.491 229.887L102.611 230.737C102.671 231.097 102.721 231.457 102.781 231.817C102.841 232.177 102.891 232.377 102.941 232.657C102.991 232.937 103.081 233.357 103.161 233.657C103.241 233.957 103.291 234.217 103.361 234.487C103.431 234.757 103.531 235.167 103.631 235.487L103.871 236.307C103.971 236.637 104.081 236.957 104.191 237.307C104.301 237.657 104.371 237.837 104.471 238.097C104.571 238.357 104.711 238.737 104.841 239.047C104.971 239.357 105.051 239.567 105.161 239.817C105.271 240.067 105.431 240.437 105.581 240.737C105.731 241.037 105.811 241.237 105.941 241.477C106.071 241.717 106.251 242.077 106.411 242.377L106.811 243.087C106.981 243.377 107.161 243.667 107.341 243.947L107.771 244.627L108.361 245.517Z" fill="url(#paint4_linear_489_2902)"/>
<path d="M183.502 176.837C200.252 188.837 200.272 216.837 183.572 239.267C166.872 261.697 139.742 270.147 122.992 258.117C106.242 246.087 106.212 218.117 122.922 195.687C139.632 173.257 166.752 164.807 183.502 176.837Z" fill="url(#paint5_linear_489_2902)"/>
<path d="M179.981 181.577C194.771 192.207 194.791 216.907 180.031 236.727C165.271 256.547 141.321 264.007 126.511 253.377C111.701 242.747 111.691 218.057 126.451 198.227C141.211 178.397 165.181 170.947 179.981 181.577Z" fill="url(#paint6_linear_489_2902)"/>
<path d="M178.582 183.997C192.352 193.737 192.172 216.626 178.212 235.106C164.252 253.586 141.772 260.686 128.012 250.956C114.252 241.226 114.412 218.337 128.382 199.847C142.352 181.357 164.782 174.267 178.582 183.997Z" fill="url(#paint7_linear_489_2902)"/>
<defs>
<linearGradient id="paint0_linear_489_2902" x1="-31.7879" y1="28.8979" x2="65.2429" y2="53.7625" gradientUnits="userSpaceOnUse">
<stop stop-color="#C87A16"/>
<stop offset="0.07" stop-color="#F7AE2D"/>
<stop offset="0.22" stop-color="#F7AE2D"/>
<stop offset="0.32" stop-color="#9B600E"/>
<stop offset="0.52" stop-color="#A15900"/>
<stop offset="0.66" stop-color="#FFF9AB"/>
<stop offset="0.76" stop-color="#FFF9AB"/>
<stop offset="0.87" stop-color="#DCB045"/>
<stop offset="1" stop-color="#8F4E0D"/>
</linearGradient>
<linearGradient id="paint1_linear_489_2902" x1="8.69444" y1="36.1472" x2="105.307" y2="43.7228" gradientUnits="userSpaceOnUse">
<stop stop-color="#FDE495"/>
<stop offset="0.49" stop-color="#F7EF9B"/>
<stop offset="0.99" stop-color="#FEF2B2"/>
</linearGradient>
<linearGradient id="paint2_linear_489_2902" x1="35.8715" y1="3.4276" x2="82.7015" y2="86.9176" gradientUnits="userSpaceOnUse">
<stop stop-color="#D09A1B"/>
<stop offset="0.39" stop-color="#F1CA56"/>
<stop offset="0.56" stop-color="#EBC452"/>
<stop offset="1" stop-color="#F9DC62"/>
</linearGradient>
<linearGradient id="paint3_linear_489_2902" x1="16.5915" y1="43.4607" x2="96.0515" y2="36.3093" gradientUnits="userSpaceOnUse">
<stop stop-color="#FDE98D"/>
<stop offset="1" stop-color="#FDD03F"/>
</linearGradient>
<linearGradient id="paint4_linear_489_2902" x1="161.612" y1="163.664" x2="110.417" y2="250.054" gradientUnits="userSpaceOnUse">
<stop stop-color="#C87A16"/>
<stop offset="0.07" stop-color="#F7AE2D"/>
<stop offset="0.22" stop-color="#F7AE2D"/>
<stop offset="0.32" stop-color="#9B600E"/>
<stop offset="0.52" stop-color="#A15900"/>
<stop offset="0.66" stop-color="#FFF9AB"/>
<stop offset="0.76" stop-color="#FFF9AB"/>
<stop offset="0.87" stop-color="#DCB045"/>
<stop offset="1" stop-color="#8F4E0D"/>
</linearGradient>
<linearGradient id="paint5_linear_489_2902" x1="170.024" y1="173.204" x2="136.086" y2="263.56" gradientUnits="userSpaceOnUse">
<stop stop-color="#EEC921"/>
<stop offset="0.5" stop-color="#E8CE64"/>
<stop offset="1" stop-color="#EDA800"/>
</linearGradient>
<linearGradient id="paint6_linear_489_2902" x1="193.825" y1="208.249" x2="100.997" y2="229.997" gradientUnits="userSpaceOnUse">
<stop stop-color="#B27800"/>
<stop offset="0.5" stop-color="#AB6F00"/>
<stop offset="1" stop-color="#94590B"/>
</linearGradient>
<linearGradient id="paint7_linear_489_2902" x1="160.842" y1="178.75" x2="145.739" y2="256.741" gradientUnits="userSpaceOnUse">
<stop stop-color="#E0A001"/>
<stop offset="1" stop-color="#CE8800"/>
</linearGradient>
</defs>
</svg>
