<svg width="159" height="137" viewBox="0 0 159 137" fill="none" xmlns="http://www.w3.org/2000/svg">
<g clip-path="url(#clip0_489_2892)">
<path d="M0.100607 60.7334C0.100607 60.3288 0.100609 59.9129 0.19018 59.5196C0.279751 59.1262 0.313339 58.3957 0.380517 57.8787C0.447695 57.3617 0.470096 57.092 0.537274 56.7548C0.626845 56.1817 0.738806 55.631 0.839573 55.0578C0.917948 54.6981 0.973933 54.3273 1.05231 53.9339C1.19786 53.3158 1.35461 52.7089 1.53375 52.0796C1.61213 51.7874 1.6793 51.4839 1.76888 51.1805C2.03759 50.2701 2.32869 49.3598 3.62747 45.4038L7.97168 34.165C6.68409 38.1098 8.22919 35.3788 8.12842 35.952C8.12842 36.3341 8.02766 36.7274 7.97168 37.0758C7.9157 37.4242 7.82612 38.1997 7.79253 38.7055C7.75894 39.2112 7.72535 39.5259 7.70296 39.9193C7.68057 40.3126 7.63578 41.0431 7.62459 41.5264C7.61339 42.0097 7.62459 42.3693 7.62459 42.7739C7.62459 43.1785 7.62459 43.8416 7.62459 44.3698L7.69177 45.6398C7.69177 46.168 7.75895 46.685 7.80373 47.2132C7.84852 47.7414 7.8933 48.0673 7.94928 48.4944C8.00526 48.9215 8.07244 49.5396 8.15082 50.0679C8.22919 50.5961 8.28518 50.9219 8.36355 51.349C8.44193 51.7761 8.55388 52.3942 8.65465 52.9225C8.75542 53.4507 8.845 53.7766 8.94577 54.2037C9.04654 54.6308 9.20328 55.2489 9.33763 55.7771C9.47199 56.3053 9.56157 56.62 9.69593 57.0471C9.83028 57.4741 10.0094 58.0923 10.1774 58.6205L10.5804 59.8792C10.7708 60.4075 10.9723 60.9356 11.1738 61.4639C11.3754 61.9921 11.4761 62.2843 11.6441 62.6889C11.812 63.0935 12.092 63.8128 12.3159 64.2848C12.5398 64.7568 12.663 65.0828 12.8533 65.4873C13.0436 65.8919 13.3683 66.6112 13.6259 67.0832C13.8834 67.5553 14.0065 67.8587 14.2193 68.2071C14.432 68.5555 14.8015 69.331 15.1038 69.8367L15.7196 70.9606C16.0443 71.5338 16.4026 72.0845 16.7497 72.6577C16.9624 72.9948 17.1527 73.332 17.3654 73.6692C17.7685 74.2873 18.194 74.9054 18.6195 75.5235C18.7986 75.7932 18.9665 76.063 19.1569 76.3327C19.7279 77.1307 20.2765 77.9286 20.9259 78.7153C20.9723 78.797 21.0287 78.8725 21.0938 78.9401C21.7656 79.8167 22.4598 80.6933 23.1764 81.5475L23.5459 81.9633C24.1393 82.6713 24.7551 83.3682 25.3821 84.065L26.1098 84.8404C26.6473 85.4023 27.1623 85.9643 27.7221 86.5262C28.0132 86.8296 28.3267 87.1107 28.6178 87.4141C29.1329 87.9198 29.6479 88.4255 30.1853 88.9201C30.51 89.2347 30.8571 89.5382 31.193 89.8416C31.708 90.3249 32.2343 90.7857 32.7605 91.2577L33.8801 92.1906C34.4064 92.6401 34.9326 93.0784 35.4812 93.5167L36.6568 94.4383L38.3139 95.697C38.717 96.0117 39.1424 96.3039 39.5567 96.6074C39.971 96.9108 40.6764 97.4166 41.2586 97.8099L42.5573 98.6865C43.1395 99.0686 43.677 99.4507 44.3152 99.8104L45.6699 100.665C46.2633 101.024 46.8679 101.395 47.4726 101.788L48.8833 102.609L50.7643 103.632L52.2086 104.396C52.8468 104.733 53.5074 105.059 54.1568 105.374L55.6347 106.093C56.0714 106.306 56.5193 106.497 56.9671 106.7C58.7249 107.498 60.5164 108.284 62.3526 108.947C63.5618 109.419 64.771 109.858 65.969 110.285C66.3721 110.431 66.7527 110.543 67.1558 110.678L69.6078 111.487L71.0074 111.903L73.2467 112.544L74.7246 112.937C75.4412 113.128 76.1689 113.308 76.8967 113.477L78.3858 113.814L80.5579 114.263L82.0134 114.544C82.7524 114.679 83.5026 114.803 84.2527 114.915L85.6299 115.14L88.0371 115.455C88.429 115.455 88.8209 115.545 89.1567 115.59C90.2764 115.702 91.3288 115.803 92.4037 115.882H92.706C93.8928 115.972 95.0684 116.039 96.2441 116.073H97.2181C98.0579 116.073 98.8864 116.073 99.7149 116.073C100.14 116.073 100.555 116.073 100.98 116.073C101.708 116.073 102.436 116.073 103.219 116.073L104.563 116.005C105.257 116.005 105.94 115.927 106.623 115.871L107.978 115.758L109.982 115.545L111.326 115.365L113.33 115.061C113.755 115.061 114.169 114.926 114.584 114.859C115.289 114.735 115.983 114.589 116.677 114.454L117.797 114.23C118.659 114.039 119.51 113.825 120.35 113.612C120.529 113.612 120.731 113.533 120.91 113.477C121.94 113.207 122.959 112.915 123.955 112.6C124.224 112.521 124.481 112.42 124.75 112.33C125.478 112.106 126.206 111.858 126.922 111.6L127.986 111.195C128.59 110.97 129.195 110.734 129.788 110.487L130.908 109.993C131.468 109.757 132.028 109.498 132.565 109.24C132.946 109.071 133.315 108.891 133.685 108.7L135.263 107.891L136.383 107.295C136.898 107.014 137.413 106.711 137.917 106.408L138.936 105.778C139.462 105.452 139.966 105.115 140.47 104.778C140.772 104.564 141.086 104.373 141.377 104.16C141.959 103.755 142.496 103.328 143.09 102.89L143.706 102.429C144.456 101.845 145.184 101.238 145.945 100.597L146.482 100.091C147.009 99.6193 147.512 99.1473 148.016 98.6528C148.274 98.4056 148.509 98.1358 148.755 97.8773C149.001 97.6189 149.572 97.0232 149.964 96.5961L150.726 95.7083C151.084 95.2924 151.431 94.8654 151.778 94.4271L152.506 93.4718C152.842 93.0335 153.155 92.5839 153.469 92.1344C153.782 91.6848 153.905 91.505 154.118 91.179C154.331 90.8531 154.723 90.2125 155.025 89.7293C155.327 89.246 155.406 89.0999 155.585 88.7852C155.887 88.2457 156.178 87.6614 156.469 87.1444C156.604 86.8522 156.761 86.5824 156.895 86.2902C157.309 85.4473 155.484 90.8869 155.842 90.0102L150.311 104.553C149.953 105.43 149.561 106.284 149.192 107.138C149.046 107.419 148.89 107.689 148.744 107.981C148.464 108.532 148.173 109.105 147.871 109.622C147.691 109.937 147.501 110.251 147.311 110.566C147.02 111.06 146.717 111.544 146.404 112.027L145.766 112.971L145.307 113.645C145.139 113.87 144.96 114.084 144.792 114.32L144.075 115.264C143.728 115.702 143.358 116.129 142.955 116.556L142.205 117.433C141.813 117.871 141.41 118.298 140.996 118.725L140.257 119.489C139.753 119.995 139.238 120.467 138.701 120.95L138.186 121.434C137.48 122.063 136.741 122.681 135.946 123.277C135.756 123.434 135.555 123.58 135.353 123.726C134.782 124.153 134.233 124.592 133.618 125.008L132.733 125.603C132.218 125.952 131.703 126.3 131.177 126.626L130.169 127.244C129.654 127.548 129.15 127.851 128.624 128.143L127.504 128.728C126.989 129.009 126.452 129.278 125.915 129.537L124.795 130.087L123.115 130.841L121.996 131.324C121.402 131.571 120.787 131.807 120.171 132.043L119.118 132.436C118.391 132.706 117.663 132.942 116.879 133.178L116.118 133.437C115.11 133.751 114.102 134.044 113.061 134.313L112.501 134.459C111.661 134.673 110.811 134.886 109.948 135.066L108.829 135.291C108.135 135.437 107.44 135.572 106.735 135.696L105.481 135.909C104.809 136.01 104.149 136.123 103.477 136.213L102.133 136.381L100.14 136.595L98.7744 136.718L96.7255 136.853L95.3707 136.921C94.6542 136.921 93.9264 136.921 93.2098 136.977H91.9223H89.4926H88.4402C87.3205 136.977 86.1001 136.887 84.9133 136.797H84.5326C83.4802 136.718 82.4389 136.617 81.3752 136.505C80.9722 136.505 80.5691 136.404 80.166 136.359L77.8036 136.055L76.3928 135.831L74.1536 135.471L72.6757 135.179L70.5259 134.729L69.0256 134.381C68.2978 134.223 67.5925 134.044 66.8647 133.864L65.3756 133.47L63.1363 132.83L61.7256 132.403C60.9194 132.155 60.1021 131.886 59.296 131.605L58.0867 131.211C56.8887 130.784 55.6795 130.335 54.4703 129.863C52.6341 129.143 50.8427 128.368 49.0736 127.559L48.4354 127.289L47.7525 126.963L46.2521 126.233C45.614 125.918 44.9758 125.603 44.3376 125.266L42.8596 124.491L41.0234 123.479L39.5791 122.647L37.8101 121.58C37.3398 121.299 36.8696 121.007 36.4217 120.714C35.9739 120.422 35.3021 119.973 34.6863 119.591L33.3539 118.691L31.6968 117.568C31.2714 117.264 30.8347 116.949 30.4204 116.635C30.0062 116.32 29.3008 115.826 28.8194 115.41L27.5878 114.443C27.0615 114.016 26.5465 113.6 26.0315 113.162L24.9118 112.184C24.3968 111.735 23.9041 111.285 23.4003 110.824L22.3366 109.858C21.8216 109.375 21.329 108.891 20.8363 108.408L19.8734 107.464C19.3472 106.936 18.8546 106.34 18.3619 105.868L17.5446 104.991C16.9512 104.351 16.425 103.71 15.8315 103.047L15.3389 102.485C14.6223 101.62 13.9282 100.766 13.2564 99.9003L12.9541 99.4845C12.3943 98.754 11.8344 98.0234 11.3306 97.2367C11.1179 96.9445 10.9275 96.6411 10.726 96.3489C10.3229 95.7532 9.91985 95.1576 9.53918 94.5732L8.87858 93.4493C8.54268 92.9098 8.2068 92.3254 7.89331 91.8197L7.25511 90.6958C6.95281 90.1563 6.6617 89.6394 6.38179 89.0999C6.10188 88.5605 5.97872 88.302 5.78838 87.8974C5.59804 87.4928 5.26215 86.8634 5.01583 86.3352L4.4784 85.0989C4.24328 84.5819 4.01935 84.0537 3.80662 83.5367C3.59389 83.0197 3.49312 82.7051 3.32517 82.2892C3.15723 81.8734 2.9333 81.244 2.75416 80.7158C2.57501 80.1876 2.47424 79.8729 2.33989 79.4571C2.20553 79.0412 2.004 78.4119 1.84725 77.8837C1.6905 77.3555 1.61212 77.0408 1.50016 76.6137C1.38819 76.1866 1.23144 75.5685 1.10828 75.0515C0.985124 74.5345 0.917952 74.1861 0.817184 73.759C0.716417 73.332 0.615647 72.7138 0.526076 72.1968C0.436504 71.6798 0.38052 71.3315 0.313341 70.9044C0.246163 70.4773 0.167788 69.8592 0.111806 69.3422C0.0558239 68.8252 -0.000152633 68.4881 -0.0225454 68.0498C-0.0449382 67.6115 -0.112117 67.0046 -0.145706 66.4764L-0.212891 65.2064C-0.212891 64.6782 -0.212891 64.15 -0.212891 63.6217C-0.212891 63.0935 -0.212891 62.79 -0.212891 62.3742C-0.212891 61.9584 0.0670179 61.2616 0.100607 60.7334Z" fill="url(#paint0_linear_489_2892)"/>
<path d="M155.742 90.0781C167.935 60.2168 144.871 23.1291 104.239 7.21504C63.6072 -8.69899 20.8146 2.60713 8.62168 32.4684C-3.5712 62.3297 19.4822 99.4063 60.1251 115.32C100.768 131.234 143.594 119.928 155.742 90.0781Z" fill="url(#paint1_linear_489_2892)"/>
<path d="M147.176 86.7181C157.947 60.3408 137.559 27.5687 101.685 13.5203C65.8122 -0.528084 27.9796 9.44062 17.1974 35.8179C6.4153 62.1952 26.7927 94.9673 62.6996 109.027C98.6064 123.087 136.405 113.084 147.176 86.7181Z" fill="url(#paint2_linear_489_2892)"/>
<path d="M143.257 84.7053C153.413 60.3623 134.3 30.1526 100.543 17.2168C66.786 4.28106 31.2599 13.5081 21.1159 37.8399C10.972 62.1718 30.073 92.3814 63.8302 105.272C97.5873 118.163 133.136 109.026 143.257 84.7053Z" fill="url(#paint3_linear_489_2892)"/>
<path style="mix-blend-mode:screen" opacity="0.5" d="M127.784 20.1837L113.43 121.006C113.43 121.006 84.2076 126.356 57.4482 114.263L77.7585 0.751953C77.7585 0.751953 103.857 1.04413 127.784 20.1837Z" fill="url(#paint4_linear_489_2892)"/>
</g>
<defs>
<linearGradient id="paint0_linear_489_2892" x1="100.599" y1="142.937" x2="-39.0662" y2="71.675" gradientUnits="userSpaceOnUse">
<stop stop-color="#C87A16"/>
<stop offset="0.07" stop-color="#F7AE2D"/>
<stop offset="0.22" stop-color="#F7AE2D"/>
<stop offset="0.32" stop-color="#9B600E"/>
<stop offset="0.52" stop-color="#A15900"/>
<stop offset="0.66" stop-color="#FFF9AB"/>
<stop offset="0.76" stop-color="#FFF9AB"/>
<stop offset="0.87" stop-color="#DCB045"/>
<stop offset="1" stop-color="#8F4E0D"/>
</linearGradient>
<linearGradient id="paint1_linear_489_2892" x1="148.901" y1="108.491" x2="29.3385" y2="17.4244" gradientUnits="userSpaceOnUse">
<stop stop-color="#FDE495"/>
<stop offset="0.49" stop-color="#F7EF9B"/>
<stop offset="0.99" stop-color="#FEF2B2"/>
</linearGradient>
<linearGradient id="paint2_linear_489_2892" x1="151.392" y1="42.4166" x2="10.9688" y2="90.1007" gradientUnits="userSpaceOnUse">
<stop stop-color="#D09A1B"/>
<stop offset="0.39" stop-color="#F1CA56"/>
<stop offset="0.56" stop-color="#EBC452"/>
<stop offset="1" stop-color="#F9DC62"/>
</linearGradient>
<linearGradient id="paint3_linear_489_2892" x1="132.23" y1="108.754" x2="47.6838" y2="18.3328" gradientUnits="userSpaceOnUse">
<stop stop-color="#FDE98D"/>
<stop offset="1" stop-color="#FDD03F"/>
</linearGradient>
<linearGradient id="paint4_linear_489_2892" x1="135.533" y1="70.5138" x2="70.5143" y2="60.1055" gradientUnits="userSpaceOnUse">
<stop stop-color="white"/>
<stop offset="1"/>
</linearGradient>
<clipPath id="clip0_489_2892">
<rect width="159" height="137" fill="white"/>
</clipPath>
</defs>
</svg>
