<svg width="20" height="22" viewBox="0 0 20 22" fill="none" xmlns="http://www.w3.org/2000/svg">
<g clip-path="url(#clip0_489_2937)">
<path d="M1.91265e-05 8.08446C0.00116005 7.02125 0.207217 5.96869 0.60643 4.98692C1.00564 4.00515 1.59019 3.1134 2.32665 2.36263C3.06312 1.61186 3.93707 1.01679 4.89859 0.611407C5.86012 0.206019 6.89036 -0.00174122 7.93045 1.09916e-05C10.0269 0.00353671 12.0365 0.856419 13.5189 2.37178C15.0014 3.88715 15.8357 5.94141 15.8391 8.08446C15.8409 9.14787 15.6377 10.2012 15.2411 11.1844C14.8446 12.1675 14.2625 13.0612 13.5281 13.8144C12.7938 14.5675 11.9214 15.1655 10.961 15.5741C10.0005 15.9826 8.97075 16.1938 7.93045 16.1956C6.88816 16.1973 5.85579 15.9887 4.89257 15.5816C3.92935 15.1746 3.05423 14.5771 2.31742 13.8235C1.58061 13.0699 0.99661 12.175 0.598933 11.1902C0.201257 10.2053 -0.00227178 9.14991 1.91265e-05 8.08446ZM2.98697 8.08446C2.9864 8.74823 3.11387 9.40561 3.3621 10.019C3.61033 10.6323 3.97445 11.1896 4.43361 11.659C4.89277 12.1284 5.43796 12.5006 6.03799 12.7543C6.63802 13.0081 7.2811 13.1384 7.93045 13.1378C9.23813 13.1331 10.4906 12.5985 11.4132 11.6512C12.3359 10.7039 12.8534 9.4212 12.8522 8.08446C12.8465 6.75234 12.3259 5.47651 11.4041 4.53496C10.4822 3.59342 9.23361 3.06247 7.93045 3.05779C6.62352 3.0566 5.36939 3.58496 4.44281 4.52714C3.51622 5.46931 2.99273 6.74849 2.98697 8.08446Z" fill="#90D26D"/>
<path d="M16.4391 21.3864L11.0565 14.0576C10.9384 13.8968 10.8525 13.7139 10.8037 13.5192C10.7549 13.3245 10.7441 13.1218 10.7719 12.9229C10.7998 12.7239 10.8658 12.5325 10.9661 12.3596C11.0664 12.1867 11.199 12.0357 11.3565 11.9153C11.5134 11.7948 11.692 11.707 11.8821 11.6572C12.0722 11.6073 12.2701 11.5963 12.4644 11.6248C12.6587 11.6533 12.8456 11.7207 13.0143 11.8232C13.1831 11.9257 13.3304 12.0612 13.4478 12.222L18.8304 19.5553C18.9484 19.7157 19.0342 19.8983 19.0829 20.0927C19.1317 20.287 19.1425 20.4893 19.1146 20.6879C19.0867 20.8865 19.0208 21.0775 18.9205 21.25C18.8203 21.4225 18.6877 21.5731 18.5304 21.6931C18.273 21.8933 17.9582 22.0011 17.6347 21.9998C17.4025 21.9998 17.1735 21.9443 16.9659 21.8378C16.7583 21.7314 16.5779 21.5768 16.4391 21.3864Z" fill="#90D26D"/>
</g>
<defs>
<clipPath id="clip0_489_2937">
<rect width="19.1304" height="22" fill="white"/>
</clipPath>
</defs>
</svg>
