<svg width="20" height="22" viewBox="0 0 20 22" fill="none" xmlns="http://www.w3.org/2000/svg">
<path d="M10.0026 3.29259C10.5994 3.29259 11.0833 2.77938 11.0833 2.1463C11.0833 1.51321 10.5994 1 10.0026 1C9.40572 1 8.92188 1.51321 8.92188 2.1463C8.92188 2.77938 9.40572 3.29259 10.0026 3.29259Z" stroke="#E0E0E0" stroke-width="2" stroke-miterlimit="10"/>
<path d="M9.99469 22.0005C11.8395 22.0005 13.3351 20.4408 13.3351 18.5169C13.3351 16.5929 11.8395 15.0332 9.99469 15.0332C8.14984 15.0332 6.6543 16.5929 6.6543 18.5169C6.6543 20.4408 8.14984 22.0005 9.99469 22.0005Z" fill="#E0E0E0"/>
<path d="M18.6292 16.2813C18.536 15.4068 17.7879 14.7624 16.9343 14.7624H17.1261C16.4346 14.7624 15.873 14.1844 15.873 13.4702V8.96957C15.873 6.24426 14.1293 3.93788 11.7296 3.17442C11.4144 3.0737 11.088 3.00159 10.7539 2.95695C10.5042 2.92376 10.25 2.9043 9.99141 2.9043C9.69728 2.9043 9.40869 2.92719 9.12677 2.96954C8.79267 3.0199 8.46857 3.10117 8.15557 3.20647C5.80692 4.00198 4.10982 6.28089 4.10982 8.96843V13.4644C4.10982 14.181 3.54708 14.7613 2.85225 14.7613H3.05403C2.20159 14.7613 1.45238 15.4057 1.35915 16.2802C1.24815 17.3138 2.03066 18.1882 3.01074 18.1882H6.93352H7.93247H11.9449H12.9439H16.9776C17.9577 18.1894 18.7402 17.3149 18.6292 16.2813Z" fill="white" stroke="white" stroke-width="2"/>
</svg>
