<svg width="29" height="25" viewBox="0 0 29 25" fill="none" xmlns="http://www.w3.org/2000/svg">
<path d="M9.85645 24.993C9.85645 25.2071 15.0484 20.4262 17.6753 18H9.85645C9.85645 20.3389 9.85645 24.7869 9.85645 24.993Z" fill="#E0E0E0"/>
<path d="M28.0362 16.8282V1.89583C28.0362 0.85206 27.2034 0 26.1764 0H1.93591C0.915775 0 0.0830078 0.85206 0.0830078 1.89583V16.8282C0.0830078 17.8791 0.915775 18.724 1.93591 18.724H12.5884H18.7439H26.1764C27.2034 18.7311 28.0362 17.8791 28.0362 16.8282Z" fill="white"/>
<ellipse cx="7.4133" cy="9.5" rx="1.46604" ry="1.5" fill="#75D3A5"/>
<ellipse cx="14.2541" cy="9.5" rx="1.46604" ry="1.5" fill="#75D3A5"/>
<ellipse cx="21.0959" cy="9.5" rx="1.46604" ry="1.5" fill="#75D3A5"/>
</svg>
