<svg width="26" height="26" viewBox="0 0 26 26" fill="none" xmlns="http://www.w3.org/2000/svg">
<circle cx="13" cy="13" r="13" fill="#90D26D"/>
<g clip-path="url(#clip0_489_2929)">
<path d="M18.6064 8.32031H16.7499L16.0814 11.8684H14.7795L14.0001 8.32031H11.9275L11.1948 11.8684H9.90747L9.22732 8.32031H7.34741L8.10054 11.8684H7.28027V13.1675H8.38953L9.37327 17.6803H11.5451L12.4792 13.1675H13.4892L14.4876 17.6803H16.6448L17.5935 13.1675H18.729V11.8684H17.8533L18.6064 8.32031ZM10.5497 15.1263L10.1731 13.1675H10.9408L10.5497 15.1263ZM12.7682 11.8684L12.9842 10.8392L13.2119 11.8684H12.7682ZM15.5093 15.094L15.0801 13.1616H15.8625L15.5093 15.094Z" fill="white"/>
</g>
<defs>
<clipPath id="clip0_489_2929">
<rect width="11.44" height="9.36" fill="white" transform="translate(7.28027 8.32031)"/>
</clipPath>
</defs>
</svg>
