<svg width="13" height="16" viewBox="0 0 13 16" fill="none" xmlns="http://www.w3.org/2000/svg">
<g clip-path="url(#clip0_489_4819)">
<path d="M11.904 12.803C11.6185 12.1064 11.4719 11.3624 11.4721 10.6115V7.32435C11.6081 1.91051 7.49877 1.43333 7.49877 1.43333C6.55881 1.27092 5.59719 1.27092 4.65723 1.43333C4.65723 1.43333 0.54791 1.90461 0.685887 7.32435V10.6155C0.685698 11.3634 0.540468 12.1045 0.257958 12.7991L0 13.4294H12.16L11.904 12.803Z" fill="#848484"/>
<path d="M8.06305 14.0527C8.06305 14.5694 7.85406 15.0648 7.48205 15.4301C7.11004 15.7955 6.60548 16.0007 6.07938 16.0007C5.55328 16.0007 5.04872 15.7955 4.67671 15.4301C4.3047 15.0648 4.0957 14.5694 4.0957 14.0527H8.06305Z" fill="#848484"/>
<path d="M6.07874 1.88512C5.99388 1.88512 5.9125 1.85202 5.8525 1.7931C5.7925 1.73418 5.75879 1.65427 5.75879 1.57094V0.314183C5.75879 0.230855 5.7925 0.150945 5.8525 0.0920231C5.9125 0.0331016 5.99388 0 6.07874 0C6.16359 0 6.24497 0.0331016 6.30497 0.0920231C6.36498 0.150945 6.39868 0.230855 6.39868 0.314183V1.56701C6.39921 1.6086 6.39133 1.64987 6.37549 1.68844C6.35965 1.72701 6.33616 1.76213 6.3064 1.79172C6.27664 1.82131 6.24119 1.8448 6.20211 1.86084C6.16303 1.87687 6.12109 1.88512 6.07874 1.88512Z" fill="#848484"/>
</g>
<defs>
<clipPath id="clip0_489_4819">
<rect width="12.16" height="16" fill="white"/>
</clipPath>
</defs>
</svg>
