<svg width="30" height="30" viewBox="0 0 30 30" fill="none" xmlns="http://www.w3.org/2000/svg">
<path d="M8.52119 13.6848C8.52119 13.6848 10.4632 18.6121 16.4658 21.4879C15.2258 22.3927 13.5386 23.6252 12.2699 24.5753C10.7439 23.5697 9.21271 22.3272 7.73609 20.7822C6.74821 19.7488 5.90331 18.6978 5.1754 17.6544L8.72397 13.4277C8.52119 13.6823 8.52119 13.6848 8.52119 13.6848Z" fill="#E0E0E0" stroke="#E0E0E0"/>
<path d="M16.4897 21.501C16.4897 21.501 18.7124 19.8401 19.6405 19.1647C20.566 18.4917 21.2627 18.6253 22.8381 18.9857C24.4135 19.3461 26.6362 19.6158 26.6362 19.6158C28.7212 19.7922 29.3633 20.1527 29.3633 22.0404C29.3633 23.9256 29.3633 24.5557 29.3633 26.1713C29.3633 27.7869 28.9057 29.3041 25.9421 28.9966C23.6024 28.7522 17.9767 28.3363 12.2678 24.5759C13.5364 23.6257 15.2236 22.3933 16.4637 21.4884C16.4741 21.491 16.4819 21.496 16.4897 21.501Z" fill="white" stroke="white"/>
<path d="M3.51689 1.24219C5.46406 1.24219 6.11138 1.24219 7.5464 1.24219C8.98143 1.24219 10.5568 1.42113 10.5568 3.98183C10.5568 6.54253 11.2977 7.80019 11.4823 8.47313C11.6669 9.14607 11.6669 9.73079 10.0915 11.7068C9.31159 12.6847 8.91903 13.1761 8.72146 13.4257L5.16769 17.6523C0.737832 11.3035 0.732634 5.14624 0.732634 3.75752C0.735233 2.14196 1.57233 1.24219 3.51689 1.24219Z" fill="white" stroke="white"/>
</svg>
